<svg xmlns="http://www.w3.org/2000/svg" width="200" height="200" viewBox="0 0 200 200" version="1.1"><path d="M 165.667 82.667 C 165.300 83.033, 165 84.158, 165 85.167 C 165 86.537, 164.242 87, 162 87 C 160.350 87, 159 87.413, 159 87.918 C 159 88.423, 158.727 89.548, 158.393 90.418 C 157.935 91.611, 158.427 92, 160.393 92 C 162.507 92, 163 92.473, 163 94.500 C 163 97.937, 167.696 98.164, 168.180 94.750 C 168.397 93.225, 169.305 92.387, 171 92.149 C 175.362 91.537, 176.684 87, 172.500 87 C 170.500 87, 170 86.500, 170 84.500 C 170 82.742, 169.456 82, 168.167 82 C 167.158 82, 166.033 82.300, 165.667 82.667 M 103.655 85.829 C 101.213 88.527, 101.573 89, 106.067 89 C 109.483 89, 110.047 89.280, 109.586 90.750 C 107.497 97.418, 102 116.607, 102 117.233 C 102 117.655, 103.945 118, 106.323 118 L 110.645 118 114.966 103.500 L 119.286 89 123.643 89 C 126.551 89, 128 88.568, 128 87.700 C 128 84.731, 125.521 84, 115.455 84 C 106.897 84, 105.051 84.286, 103.655 85.829 M 132.774 85.750 C 131.083 87.678, 121.990 116.657, 122.817 117.484 C 123.101 117.768, 127.250 118, 132.036 118 C 140.649 118, 140.789 117.960, 145.641 114.097 C 150.392 110.314, 150.643 109.845, 153.823 98.815 C 157.597 85.725, 157.381 83.754, 152.216 84.197 L 148.686 84.500 145.353 96 C 142.567 105.616, 141.493 107.951, 138.798 110.250 C 135.451 113.106, 132.438 113.922, 133.257 111.750 C 133.978 109.840, 141 85.167, 141 84.546 C 141 83.167, 134.162 84.169, 132.774 85.750 M 33.134 93.338 C 32.524 94.074, 30.657 99.136, 28.986 104.588 C 27.316 110.040, 25.696 115.317, 25.386 116.316 C 24.901 117.883, 25.342 118.088, 28.609 117.816 L 32.395 117.500 35.454 107 C 38.316 97.180, 38.691 96.480, 41.257 96.184 C 42.766 96.010, 43.992 96.235, 43.983 96.684 C 43.973 97.133, 42.631 102, 41 107.500 C 39.369 113, 38.027 117.612, 38.017 117.750 C 37.959 118.581, 42.892 117.788, 44.240 116.750 C 46.058 115.349, 52.412 94.476, 51.480 92.967 C 50.529 91.428, 34.450 91.753, 33.134 93.338 M 56.254 92.661 C 55.177 93.096, 50.423 106.834, 48.423 115.289 L 47.764 118.078 57.132 117.789 L 66.500 117.500 68.255 114 L 70.009 110.500 66.765 110.169 C 64.351 109.922, 63.166 110.371, 62.138 111.919 C 61.378 113.064, 59.678 114, 58.359 114 C 56.254 114, 56.041 113.665, 56.610 111.250 C 57.479 107.564, 57.927 107.195, 61.992 106.821 C 64.362 106.603, 65.590 105.938, 65.815 104.750 C 66.081 103.348, 65.436 103, 62.573 103 C 60.608 103, 59 102.842, 59 102.649 C 59 102.456, 59.494 100.881, 60.098 99.149 C 60.978 96.625, 61.753 96, 64.004 96 C 66.320 96, 66.721 96.351, 66.290 98 C 65.838 99.726, 66.259 100, 69.364 100 C 72.367 100, 73.066 99.587, 73.589 97.502 C 74.797 92.688, 73.733 91.993, 65.281 92.079 C 61.002 92.122, 56.939 92.384, 56.254 92.661 M 77.626 94.250 C 76.844 95.487, 75.044 100.599, 73.626 105.608 C 72.207 110.618, 70.762 115.456, 70.416 116.358 C 69.861 117.806, 70.834 117.996, 78.643 117.968 C 84.051 117.949, 88.099 117.462, 89.038 116.718 C 90.856 115.278, 97.408 94.469, 96.504 93.007 C 96.162 92.453, 92.094 92, 87.464 92 C 79.822 92, 78.915 92.207, 77.626 94.250 M 83.478 97.035 C 82.612 98.436, 79 111.163, 79 112.813 C 79 113.653, 79.961 114.018, 81.644 113.816 C 84.016 113.533, 84.531 112.682, 86.644 105.556 C 87.940 101.187, 89 97.249, 89 96.806 C 89 95.624, 84.228 95.822, 83.478 97.035" stroke="none" fill="#fcf5fa" fill-rule="evenodd"/><path d="M 9.841 1.344 C 5.700 3.184, 3.209 5.883, 1.508 10.372 C 0.126 14.023, -0.023 24.640, 0.222 102.177 C 0.497 188.953, 0.521 189.882, 2.562 192.615 C 3.696 194.134, 5.866 196.304, 7.385 197.438 C 10.118 199.479, 11.033 199.503, 98.329 199.766 L 186.512 200.032 191.006 197.766 C 194.155 196.178, 196.099 194.302, 197.500 191.500 C 198.600 189.300, 199.838 187.350, 200.250 187.167 C 200.662 186.983, 201 147.421, 201 99.250 C 201 51.079, 200.719 11.948, 200.375 12.292 C 200.031 12.635, 198.794 11.023, 197.625 8.708 C 196.112 5.712, 194.215 3.852, 191.038 2.250 L 186.576 0 99.538 0.081 C 34.906 0.142, 11.815 0.467, 9.841 1.344 M 0.479 100.500 C 0.478 148.900, 0.600 168.846, 0.750 144.825 C 0.899 120.804, 0.899 81.204, 0.750 56.825 C 0.601 32.446, 0.479 52.100, 0.479 100.500 M 165.667 82.667 C 165.300 83.033, 165 84.158, 165 85.167 C 165 86.537, 164.242 87, 162 87 C 160.350 87, 159 87.413, 159 87.918 C 159 88.423, 158.727 89.548, 158.393 90.418 C 157.935 91.611, 158.427 92, 160.393 92 C 162.507 92, 163 92.473, 163 94.500 C 163 97.937, 167.696 98.164, 168.180 94.750 C 168.397 93.225, 169.305 92.387, 171 92.149 C 175.362 91.537, 176.684 87, 172.500 87 C 170.500 87, 170 86.500, 170 84.500 C 170 82.742, 169.456 82, 168.167 82 C 167.158 82, 166.033 82.300, 165.667 82.667 M 103.655 85.829 C 101.213 88.527, 101.573 89, 106.067 89 C 109.483 89, 110.047 89.280, 109.586 90.750 C 107.497 97.418, 102 116.607, 102 117.233 C 102 117.655, 103.945 118, 106.323 118 L 110.645 118 114.966 103.500 L 119.286 89 123.643 89 C 126.551 89, 128 88.568, 128 87.700 C 128 84.731, 125.521 84, 115.455 84 C 106.897 84, 105.051 84.286, 103.655 85.829 M 132.774 85.750 C 131.083 87.678, 121.990 116.657, 122.817 117.484 C 123.101 117.768, 127.250 118, 132.036 118 C 140.649 118, 140.789 117.960, 145.641 114.097 C 150.392 110.314, 150.643 109.845, 153.823 98.815 C 157.597 85.725, 157.381 83.754, 152.216 84.197 L 148.686 84.500 145.353 96 C 142.567 105.616, 141.493 107.951, 138.798 110.250 C 135.451 113.106, 132.438 113.922, 133.257 111.750 C 133.978 109.840, 141 85.167, 141 84.546 C 141 83.167, 134.162 84.169, 132.774 85.750 M 33.134 93.338 C 32.524 94.074, 30.657 99.136, 28.986 104.588 C 27.316 110.040, 25.696 115.317, 25.386 116.316 C 24.901 117.883, 25.342 118.088, 28.609 117.816 L 32.395 117.500 35.454 107 C 38.316 97.180, 38.691 96.480, 41.257 96.184 C 42.766 96.010, 43.992 96.235, 43.983 96.684 C 43.973 97.133, 42.631 102, 41 107.500 C 39.369 113, 38.027 117.612, 38.017 117.750 C 37.959 118.581, 42.892 117.788, 44.240 116.750 C 46.058 115.349, 52.412 94.476, 51.480 92.967 C 50.529 91.428, 34.450 91.753, 33.134 93.338 M 56.254 92.661 C 55.177 93.096, 50.423 106.834, 48.423 115.289 L 47.764 118.078 57.132 117.789 L 66.500 117.500 68.255 114 L 70.009 110.500 66.765 110.169 C 64.351 109.922, 63.166 110.371, 62.138 111.919 C 61.378 113.064, 59.678 114, 58.359 114 C 56.254 114, 56.041 113.665, 56.610 111.250 C 57.479 107.564, 57.927 107.195, 61.992 106.821 C 64.362 106.603, 65.590 105.938, 65.815 104.750 C 66.081 103.348, 65.436 103, 62.573 103 C 60.608 103, 59 102.842, 59 102.649 C 59 102.456, 59.494 100.881, 60.098 99.149 C 60.978 96.625, 61.753 96, 64.004 96 C 66.320 96, 66.721 96.351, 66.290 98 C 65.838 99.726, 66.259 100, 69.364 100 C 72.367 100, 73.066 99.587, 73.589 97.502 C 74.797 92.688, 73.733 91.993, 65.281 92.079 C 61.002 92.122, 56.939 92.384, 56.254 92.661 M 77.626 94.250 C 76.844 95.487, 75.044 100.599, 73.626 105.608 C 72.207 110.618, 70.762 115.456, 70.416 116.358 C 69.861 117.806, 70.834 117.996, 78.643 117.968 C 84.051 117.949, 88.099 117.462, 89.038 116.718 C 90.856 115.278, 97.408 94.469, 96.504 93.007 C 96.162 92.453, 92.094 92, 87.464 92 C 79.822 92, 78.915 92.207, 77.626 94.250 M 83.478 97.035 C 82.612 98.436, 79 111.163, 79 112.813 C 79 113.653, 79.961 114.018, 81.644 113.816 C 84.016 113.533, 84.531 112.682, 86.644 105.556 C 87.940 101.187, 89 97.249, 89 96.806 C 89 95.624, 84.228 95.822, 83.478 97.035" stroke="none" fill="#ee3ad4" fill-rule="evenodd"/></svg>